<svg width="24" height="24" viewBox="0 0 24 24" fill="none" xmlns="http://www.w3.org/2000/svg">
<g clip-path="url(#clip0_1420_4908)">
<path d="M5.36983 8.32981C4.54539 8.32981 3.75791 8.33216 2.97043 8.32922C2.50605 8.32745 2.1448 8.05859 2.03034 7.63054C2.0059 7.53974 2.00232 7.44186 2.00173 7.34753C1.99934 6.70722 1.99994 6.06691 2.00053 5.42719C2.00232 4.05754 2.99666 3.0446 4.38205 3.00097C4.42676 2.99979 4.47147 2.99979 4.51618 2.99979C8.38444 2.99979 12.2533 2.99861 16.1215 2.99979C17.3782 2.99979 18.3379 3.74564 18.5782 4.91659C18.6223 5.13062 18.6253 5.35526 18.6253 5.57518C18.6283 8.83392 18.6271 12.0932 18.6271 15.352C18.6271 15.4463 18.6271 15.5407 18.6271 15.6633C18.726 15.6633 18.8047 15.6633 18.884 15.6633C19.5832 15.6633 20.2825 15.6615 20.9818 15.6633C21.6101 15.6651 21.997 16.0483 21.9976 16.6668C21.9976 17.2776 22.0059 17.8879 21.9934 18.4987C21.9701 19.6325 21.1731 20.6513 20.0983 20.9208C19.892 20.9727 19.6721 20.9898 19.4587 20.9904C15.6125 20.9945 11.7663 20.9815 7.92065 20.9992C6.41007 21.0063 5.50456 19.7958 5.39606 18.6597C5.3752 18.4403 5.37162 18.2192 5.37103 17.9987C5.36924 14.8797 5.36983 11.7607 5.36983 8.64112V8.32922V8.32981ZM6.6062 4.42899C6.83988 4.95079 6.81424 5.45195 6.81365 5.95135C6.81246 9.9972 6.81305 14.0425 6.81365 18.0883C6.81365 18.2063 6.81186 18.3236 6.81722 18.4415C6.83153 18.7528 6.94122 19.0299 7.14927 19.264C7.50098 19.6602 8.04047 19.6637 8.39696 19.2711C8.62408 19.0211 8.73973 18.7216 8.74271 18.3861C8.74807 17.8342 8.7445 17.2829 8.74569 16.7311C8.74688 16.0666 9.15523 15.6645 9.82945 15.6639C12.1877 15.6639 14.5454 15.6639 16.9037 15.6639H17.1755C17.1797 15.5825 17.185 15.5253 17.185 15.4681C17.185 12.1139 17.185 8.75963 17.1838 5.40537C17.1838 5.31104 17.1767 5.21316 17.1517 5.12295C17.0271 4.67662 16.6569 4.42958 16.1126 4.42958C13.033 4.4284 9.95344 4.42958 6.87386 4.42958C6.80113 4.42958 6.7284 4.42958 6.60739 4.42958L6.6062 4.42899ZM9.88787 19.5641H10.18C13.2601 19.5641 16.3397 19.5641 19.4199 19.5641C20.0083 19.5641 20.4387 19.2605 20.5102 18.6797C20.574 18.1614 20.5239 17.6296 20.5239 17.0978H10.1937C10.1382 17.9197 10.3099 18.7516 9.88787 19.5641ZM3.42945 6.9012H5.36566C5.36566 6.36466 5.38176 5.83755 5.36089 5.31222C5.34062 4.79631 4.9448 4.43783 4.4363 4.43312C3.88787 4.42781 3.45508 4.79278 3.43421 5.31575C3.41335 5.83578 3.42945 6.35699 3.42945 6.9012Z" fill="#212529"/>
<path d="M11.9987 11.4856C11.0395 11.4856 10.081 11.4879 9.12179 11.4844C8.64191 11.4826 8.33192 11.1984 8.33252 10.7751C8.33252 10.3588 8.64429 10.064 9.09914 10.0623C9.90212 10.0581 10.7051 10.0611 11.5075 10.0611C12.6371 10.0611 13.7674 10.0611 14.8971 10.0611C15.2243 10.0611 15.4777 10.1955 15.6076 10.498C15.7245 10.7698 15.681 11.0316 15.4783 11.2562C15.312 11.4413 15.0926 11.4873 14.8529 11.4867C13.9015 11.4844 12.9501 11.4856 11.9981 11.4856H11.9987Z" fill="#212529"/>
<path d="M11.9975 8.5588C11.0383 8.5588 10.0798 8.55998 9.1206 8.5588C8.64191 8.55821 8.33192 8.27814 8.33252 7.85304C8.33252 7.43088 8.64906 7.14493 9.12298 7.14493C11.0556 7.14375 12.9883 7.14375 14.9209 7.14493C15.2702 7.14493 15.5564 7.35365 15.6446 7.65847C15.7298 7.95327 15.6136 8.29406 15.3394 8.44382C15.2041 8.51752 15.0312 8.5529 14.8744 8.55467C13.9158 8.56469 12.9567 8.55939 11.9975 8.55939V8.5588Z" fill="#212529"/>
<path d="M10.5384 12.9831C11.0141 12.9831 11.4904 12.9772 11.9661 12.9855C12.3417 12.992 12.629 13.219 12.7023 13.5444C12.7691 13.8422 12.629 14.1718 12.3488 14.3115C12.2272 14.3722 12.08 14.4088 11.944 14.41C10.9998 14.4182 10.0555 14.4176 9.11125 14.4129C8.65164 14.4105 8.33748 14.1199 8.33331 13.7089C8.32854 13.2815 8.63673 12.9902 9.11125 12.9843C9.58696 12.979 10.0633 12.9831 10.539 12.9831H10.5384Z" fill="#212529"/>
</g>
<defs>
<clipPath id="clip0_1420_4908">
<rect width="20" height="18" fill="white" transform="translate(2 3)"/>
</clipPath>
</defs>
</svg>
