<svg width="24" height="24" viewBox="0 0 24 24" fill="none" xmlns="http://www.w3.org/2000/svg">
<path d="M10.3849 3.02161C10.1294 3.06341 9.86913 3.04744 9.61172 3.06905C8.5736 3.15454 7.54582 3.28418 6.55186 3.61957C5.02474 4.13439 4.04816 5.1739 3.57044 6.70004C3.31256 7.52347 3.18714 8.36992 3.10775 9.2267C2.98891 10.5062 2.9875 11.7886 3.0138 13.0705C3.03823 14.2758 3.11762 15.4778 3.39429 16.6573C3.58923 17.4883 3.88751 18.2746 4.42865 18.9501C5.11352 19.8045 6.03937 20.2615 7.06998 20.5359C8.12594 20.8172 9.20774 20.9107 10.2957 20.9633C11.1914 21.0065 12.0877 21.007 12.9835 20.9882C14.2645 20.961 15.5431 20.8858 16.794 20.5734C17.5996 20.3724 18.3573 20.0661 19.0055 19.5302C19.7533 18.9115 20.1902 18.097 20.4678 17.1862C20.7074 16.4008 20.8257 15.5929 20.8962 14.7765C20.9324 14.3566 20.9652 13.9367 20.9709 13.5148C20.9634 13.3363 20.9455 13.1569 21 12.9817V11.0488C20.9436 10.8618 20.9634 10.6706 20.9704 10.4804C20.9342 9.28636 20.8309 8.1003 20.5058 6.94477C20.2334 5.97572 19.7871 5.1086 18.9933 4.45568C18.3103 3.89389 17.5089 3.58763 16.6606 3.3894C15.6835 3.16159 14.6896 3.06952 13.689 3.03288C13.6425 3.031 13.5824 3.06388 13.5486 3H13.4781C13.2672 3.07187 13.0563 3.04603 12.8454 3H11.2285C11.0411 3.05073 10.8537 3.06717 10.6663 3H10.4906C10.4563 3.02067 10.4201 3.02255 10.384 3.02114L10.3849 3.02161ZM11.3526 4.51111C12.3775 4.49561 13.4025 4.50078 14.4251 4.58392C15.2988 4.65532 16.1645 4.77134 17.0016 5.05646C18.0416 5.41017 18.6828 6.12791 18.9999 7.16507C19.2521 7.99179 19.3578 8.84106 19.4236 9.69878C19.5053 10.7632 19.5081 11.829 19.486 12.8943C19.4602 14.14 19.4005 15.3853 19.068 16.5962C18.865 17.3361 18.5513 18.0125 17.9021 18.478C17.4338 18.8138 16.9006 18.9994 16.3473 19.1304C15.4909 19.3333 14.6182 19.408 13.7412 19.4527C13.162 19.4823 12.5823 19.4898 11.9223 19.4869C11.059 19.5006 10.1167 19.4686 9.17815 19.3756C8.43456 19.3019 7.70083 19.1755 6.98824 18.9313C5.95294 18.5766 5.32115 17.8593 5.00549 16.8311C4.75183 16.0049 4.64755 15.1551 4.58178 14.2974C4.49958 13.2274 4.49723 12.1554 4.51978 11.084C4.54561 9.85003 4.60668 8.617 4.93315 7.41637C5.08628 6.85364 5.30236 6.3205 5.69976 5.88037C6.19439 5.33266 6.84685 5.07244 7.54018 4.8977C8.79156 4.58251 10.0711 4.53037 11.3526 4.51064V4.51111Z" fill="#212529"/>
<path d="M13.9713 0H13.1277C13.4089 0.0388309 13.6901 0.0388309 13.9713 0Z" fill="#212529"/>
<path d="M10.9718 0H10.2222C10.4721 0.0394572 10.7219 0.0394572 10.9718 0Z" fill="#212529"/>
<path d="M23.9755 9.99646V10.0021C23.9893 10.2451 23.9473 10.49 23.9993 10.7317V9.98206C23.9899 9.99333 23.9818 9.99834 23.9755 9.99646Z" fill="#212529"/>
<path d="M23.9755 9.9965C23.9755 9.98774 23.9755 9.97959 23.9755 9.97083C23.9705 9.97083 23.9655 9.97145 23.9604 9.97396C23.9642 9.98774 23.9692 9.99525 23.9761 9.9965H23.9755Z" fill="#212529"/>
<path d="M23.9755 13.9966C23.9824 13.9954 23.9899 14.0004 23.9993 14.0123V13.3096C23.9461 13.5369 23.9893 13.768 23.9755 13.9973V13.9966Z" fill="#212529"/>
<path d="M23.9604 14.0205L23.9755 14.0236C23.9755 14.0148 23.9755 14.0067 23.9755 13.9979C23.9692 13.9998 23.9642 14.0073 23.9604 14.0205Z" fill="#212529"/>
<path d="M6.8186 11.1636C6.71398 11.1641 6.60983 11.1709 6.50849 11.2126C6.18149 11.3471 5.96522 11.7146 6.00462 12.078C6.04872 12.4815 6.31895 12.7927 6.67973 12.823C6.93589 12.8444 7.19439 12.8423 7.45101 12.8329C7.57909 12.8282 7.64712 12.8735 7.70904 12.9997C8.27108 14.1482 8.83969 15.2926 9.40643 16.4385C9.46272 16.5521 9.51715 16.6668 9.60253 16.7586C9.99146 17.1756 10.5765 17.037 10.8355 16.4614C11.7991 14.3208 12.7604 12.1791 13.7231 10.0385C13.7798 9.91235 13.8394 9.78723 13.9046 9.64647C13.9361 9.70851 13.9586 9.75126 13.9802 9.79505C14.3986 10.6401 14.8176 11.4847 15.2347 12.3303C15.3393 12.542 15.4702 12.7448 15.6897 12.7808C16.286 12.8793 16.8908 12.8949 17.4828 12.7766C17.8211 12.7088 18.0317 12.2917 17.9961 11.9289C17.9557 11.5191 17.6794 11.2027 17.3102 11.174C17.054 11.1537 16.7955 11.1568 16.5389 11.1667C16.416 11.1714 16.3536 11.1229 16.2959 11.0061C15.7301 9.85187 15.1591 8.70076 14.5896 7.54913C14.522 7.41253 14.4512 7.27855 14.3362 7.18106C13.9332 6.83958 13.4111 6.99442 13.1681 7.53348C12.462 9.09958 11.7583 10.6672 11.0536 12.2339C10.7393 12.933 10.425 13.6316 10.0965 14.3614C9.64569 13.4501 9.20422 12.567 8.77214 11.6792C8.60184 11.3293 8.35131 11.1578 7.99429 11.1625C7.60255 11.1677 7.21034 11.1625 6.8186 11.1646V11.1636Z" fill="#212529"/>
</svg>
